<!DOCTYPE svg PUBLIC "-//W3C//DTD SVG 20010904//EN" "http://www.w3.org/TR/2001/REC-SVG-20010904/DTD/svg10.dtd">
<svg version="1.0" xmlns="http://www.w3.org/2000/svg" width="1200px" height="848px" viewBox="0 0 12000 8480" preserveAspectRatio="xMidYMid meet">
<g id="layer101" fill="#61dafb" stroke="none">
 <path d="M4475 7334 c-132 -21 -239 -76 -336 -173 -101 -102 -159 -207 -210 -381 -73 -247 -83 -623 -28 -1005 18 -127 52 -315 65 -356 4 -13 -25 -27 -148 -68 -466 -158 -828 -362 -1056 -592 -100 -103 -143 -160 -193 -264 -202 -415 68 -846 746 -1190 149 -76 375 -168 548 -225 53 -17 97 -37 97 -43 0 -7 -7 -41 -16 -77 -49 -210 -84 -526 -84 -765 1 -606 184 -967 541 -1062 88 -23 268 -23 379 1 331 71 773 328 1143 664 37 34 70 62 73 62 2 0 60 -48 127 -106 783 -677 1469 -834 1793 -412 232 301 283 881 141 1588 l-23 115 175 61 c681 234 1129 564 1259 926 23 64 26 88 26 193 0 110 -3 127 -32 203 -101 268 -372 515 -802 728 -152 75 -356 159 -523 214 -76 25 -97 36 -93 47 13 33 66 337 82 468 23 191 23 542 1 685 -68 428 -245 678 -528 745 -79 18 -249 19 -349 1 -328 -59 -762 -307 -1169 -669 l-74 -66 -76 68 c-374 337 -787 582 -1113 661 -81 20 -280 34 -343 24z m270 -343 c182 -44 394 -151 624 -314 141 -101 391 -309 391 -327 0 -3 -39 -49 -86 -101 -124 -135 -281 -324 -395 -475 l-100 -131 -107 -13 c-198 -23 -643 -101 -768 -136 -20 -5 -23 1 -43 108 -88 472 -93 830 -15 1097 44 151 131 267 220 295 69 21 185 19 279 -3z m2800 -4 c56 -16 134 -97 173 -178 102 -217 125 -590 61 -1004 -21 -141 -53 -303 -61 -311 -3 -2 -67 9 -142 26 -167 37 -434 83 -616 105 -74 9 -138 20 -141 23 -3 4 -50 66 -104 137 -126 166 -201 257 -352 427 l-122 137 72 64 c295 261 620 467 866 547 151 49 263 57 366 27z m-1484 -934 c97 -100 309 -352 309 -367 0 -3 -168 -7 -374 -8 l-374 -3 18 25 c45 62 349 409 360 410 3 0 31 -26 61 -57z m269 -703 c107 -5 221 -12 253 -16 l58 -6 78 -117 c159 -237 294 -468 442 -758 60 -116 109 -219 109 -228 0 -23 -172 -361 -278 -545 -86 -150 -297 -485 -337 -536 -18 -23 -29 -26 -140 -34 -322 -24 -861 -21 -1103 7 l-53 6 -58 86 c-87 129 -198 308 -291 471 -97 169 -280 527 -280 548 0 22 204 415 305 587 48 83 141 232 207 332 l119 182 52 6 c181 22 636 29 917 15z m-1416 -97 c-51 -78 -221 -365 -287 -486 l-75 -138 -32 83 c-17 46 -59 165 -93 266 -46 139 -57 186 -48 191 20 12 474 104 545 110 4 1 0 -11 -10 -26z m2353 -8 c103 -19 229 -44 279 -55 l92 -21 -35 -112 c-34 -109 -90 -267 -134 -380 l-22 -58 -62 118 c-88 168 -208 375 -303 521 -8 12 -12 22 -9 22 4 0 91 -16 194 -35z m-3158 -357 c35 -106 105 -299 157 -429 l94 -237 -26 -58 c-61 -136 -176 -441 -230 -609 -32 -99 -59 -182 -61 -184 -4 -6 -270 88 -383 136 -283 121 -513 264 -660 412 -199 200 -220 337 -78 525 158 210 545 439 1013 600 55 19 103 35 106 35 3 1 34 -86 68 -191z m3978 148 c551 -189 971 -472 1065 -718 48 -127 4 -243 -151 -399 -195 -194 -525 -377 -921 -510 -63 -22 -117 -39 -121 -39 -4 0 -28 66 -54 148 -60 188 -128 372 -205 557 l-61 147 51 118 c95 223 260 684 260 727 0 7 2 13 4 13 2 0 62 -20 133 -44z m-3387 -1481 c46 -82 116 -203 157 -268 l73 -119 -43 7 c-23 3 -149 27 -279 52 -192 37 -238 49 -238 62 0 28 85 280 172 511 9 23 11 22 42 -35 18 -33 70 -127 116 -210z m2857 -43 c41 -124 71 -228 67 -232 -13 -12 -499 -110 -547 -110 -4 0 9 26 30 58 66 101 237 395 288 495 l50 96 18 -42 c10 -23 53 -143 94 -265z m-3110 -591 c165 -36 453 -84 612 -102 79 -9 118 -18 127 -28 7 -9 61 -79 120 -156 118 -155 272 -339 384 -458 l73 -78 -58 -52 c-495 -444 -1016 -684 -1261 -582 -78 32 -150 126 -192 250 -43 128 -54 204 -59 430 -6 243 8 404 53 640 34 175 35 177 49 171 7 -2 75 -18 152 -35z m3297 -96 c49 -253 60 -366 60 -615 0 -181 -4 -256 -17 -326 -42 -223 -116 -363 -221 -416 -167 -85 -491 8 -845 243 -129 85 -328 240 -425 330 l-59 55 131 147 c141 159 292 343 387 474 33 46 69 85 80 87 11 2 110 16 220 31 182 24 465 75 605 109 30 7 56 13 57 12 1 -1 13 -59 27 -131z m-1374 -63 c0 -7 -190 -232 -283 -335 l-89 -97 -66 71 c-78 84 -206 233 -266 309 l-44 56 374 0 c206 0 374 -2 374 -4z"/>
 <path d="M5881 4870 c-146 -31 -280 -106 -370 -207 -61 -68 -123 -184 -147 -273 -23 -86 -23 -243 0 -330 45 -172 172 -334 323 -413 261 -136 569 -91 773 113 131 130 192 281 191 470 -2 356 -271 634 -626 646 -55 2 -120 -1 -144 -6z"/>
 </g>

</svg>